<svg viewBox="0 0 24 22" fill="none" xmlns="http://www.w3.org/2000/svg">
<path fill-rule="evenodd" clip-rule="evenodd" d="M7.8341 19.9863C7.42615 21.1586 6.31133 22 5 22C3.34315 22 2 20.6569 2 19C2 17.603 2.95486 16.429 4.24752 16.0952L4.69039 14.7666C3.68249 14.3428 2.94961 13.3834 2.8609 12.2301L2.15634 3.07081C2.10986 2.46658 1.60601 2 1 2C0.447715 2 0 1.55228 0 1C0 0.447715 0.447715 0 1 0C2.65109 0 4.02381 1.27119 4.15045 2.91741L23 2.94461C23.6306 2.94461 24.1038 3.52119 23.9808 4.13969L22.301 12.5852C22.0218 13.989 20.7899 15 19.3586 15H6.72076L6.29044 16.291C7.00909 16.6339 7.56987 17.2544 7.8341 18.0137C7.88806 18.0047 7.94348 18 8 18H16.1707C16.5825 16.8348 17.6938 16 19 16C20.6569 16 22 17.3431 22 19C22 20.6569 20.6569 22 19 22C17.6938 22 16.5825 21.1652 16.1707 20H8C7.94348 20 7.88806 19.9953 7.8341 19.9863V19.9863ZM4.98355 18.0001C4.43885 18.0089 4 18.4532 4 19C4 19.5523 4.44772 20 5 20C5.55228 20 6 19.5523 6 19C6 18.4533 5.56122 18.009 5.01659 18.0001C5.0056 18.0003 4.99458 18.0003 4.98355 18.0001V18.0001ZM6.02306 13H19.3586C19.8357 13 20.2463 12.663 20.3394 12.1951L21.7815 4.94461H4.30639L4.85501 12.0767C4.89508 12.5977 5.32953 13 5.85206 13H5.97666C5.99208 12.9996 6.00755 12.9996 6.02306 13V13ZM19 20C19.5523 20 20 19.5523 20 19C20 18.4477 19.5523 18 19 18C18.4477 18 18 18.4477 18 19C18 19.5523 18.4477 20 19 20Z" fill="#8A8D98"/>
</svg>
